<svg xmlns="http://www.w3.org/2000/svg" xmlns:xlink="http://www.w3.org/1999/xlink" contentStyleType="text/css" data-diagram-type="CLASS" height="1018.125px" preserveAspectRatio="none" style="width:7633px;height:1018px;background:#FFFFFF;" version="1.1" viewBox="0 0 7633 1018" width="7633.125px" zoomAndPan="magnify"><title>Assignment 2 - Event Processing System (Full View)</title><defs/><g><g class="title" data-source-line="1"><text fill="#000000" font-family="sans-serif" font-size="26.25" font-weight="bold" lengthAdjust="spacing" textLength="772.2729" x="3417.301" y="43.1158">Assignment 2 - Event Processing System (Full View)</text></g><!--cluster core--><g class="cluster" data-entity="core" data-source-line="13" data-uid="ent0002" id="cluster_core"><rect fill="none" height="506.25" rx="4.6875" ry="4.6875" style="stroke:#000000;stroke-width:2.8125;" width="922.5" x="1590" y="298.6816"/><text fill="#000000" font-family="sans-serif" font-size="26.25" font-weight="bold" lengthAdjust="spacing" textLength="287.5708" x="1907.4646" y="326.7975">assignment2 (core)</text></g><!--cluster pipe--><g class="cluster" data-entity="pipe" data-source-line="22" data-uid="ent0008" id="cluster_pipe"><rect fill="none" height="506.25" rx="4.6875" ry="4.6875" style="stroke:#000000;stroke-width:2.8125;" width="601.875" x="3663.75" y="298.6816"/><text fill="#000000" font-family="sans-serif" font-size="26.25" font-weight="bold" lengthAdjust="spacing" textLength="412.0404" x="3758.6673" y="326.7975">pipeline (Template Method)</text></g><!--cluster strat--><g class="cluster" data-entity="strat" data-source-line="28" data-uid="ent0011" id="cluster_strat"><rect fill="none" height="418.125" rx="4.6875" ry="4.6875" style="stroke:#000000;stroke-width:2.8125;" width="1642.5" x="4340.625" y="589.3066"/><text fill="#000000" font-family="sans-serif" font-size="26.25" font-weight="bold" lengthAdjust="spacing" textLength="125.0848" x="5099.3326" y="617.4225">strategy</text></g><!--cluster deco--><g class="cluster" data-entity="deco" data-source-line="37" data-uid="ent0017" id="cluster_deco"><rect fill="none" height="721.875" rx="4.6875" ry="4.6875" style="stroke:#000000;stroke-width:2.8125;" width="1563.75" x="6058.125" y="83.0566"/><text fill="#000000" font-family="sans-serif" font-size="26.25" font-weight="bold" lengthAdjust="spacing" textLength="144.375" x="6767.8125" y="111.1725">decorator</text></g><!--cluster obs--><g class="cluster" data-entity="obs" data-source-line="47" data-uid="ent0024" id="cluster_obs"><rect fill="none" height="431.25" rx="4.6875" ry="4.6875" style="stroke:#000000;stroke-width:2.8125;" width="1501.875" x="13.125" y="83.0566"/><text fill="#000000" font-family="sans-serif" font-size="26.25" font-weight="bold" lengthAdjust="spacing" textLength="131.0577" x="698.5336" y="111.1725">observer</text></g><!--cluster pers--><g class="cluster" data-entity="pers" data-source-line="56" data-uid="ent0030" id="cluster_pers"><rect fill="none" height="708.75" rx="4.6875" ry="4.6875" style="stroke:#000000;stroke-width:2.8125;" width="943.125" x="2587.5" y="298.6816"/><text fill="#000000" font-family="sans-serif" font-size="26.25" font-weight="bold" lengthAdjust="spacing" textLength="394.1602" x="2861.9824" y="326.7975">persistence (Proxy + Pool)</text></g><!--class App--><g class="entity" data-entity="App" data-source-line="14" data-uid="ent0003" id="entity_App"><rect fill="#F1F1F1" height="90" rx="4.6875" ry="4.6875" style="stroke:#181818;stroke-width:0.9375;" width="111.2823" x="1635.6" y="379.3066"/><ellipse cx="1663.725" cy="409.3066" fill="#ADD1B2" rx="20.625" ry="20.625" style="stroke:#181818;stroke-width:1.875;"/><path d="M1669.2914,419.8828 Q1668.2074,420.4395 1667.0063,420.7031 Q1665.8051,420.9961 1664.4867,420.9961 Q1659.7992,420.9961 1657.309,417.9199 Q1654.848,414.8145 1654.848,408.9551 Q1654.848,403.0957 1657.309,399.9902 Q1659.7992,396.8848 1664.4867,396.8848 Q1665.8051,396.8848 1667.0063,397.1777 Q1668.2367,397.4707 1669.2914,398.0273 L1669.2914,403.125 Q1668.1195,402.041 1667.0063,401.543 Q1665.893,401.0156 1664.7211,401.0156 Q1662.2016,401.0156 1660.9125,403.0371 Q1659.6234,405.0293 1659.6234,408.9551 Q1659.6234,412.8809 1660.9125,414.9023 Q1662.2016,416.8945 1664.7211,416.8945 Q1665.893,416.8945 1667.0063,416.3965 Q1668.1195,415.8691 1669.2914,414.7852 L1669.2914,419.8828 Z " fill="#000000"/><text fill="#000000" font-family="sans-serif" font-size="26.25" lengthAdjust="spacing" textLength="51.2823" x="1689.975" y="418.3942">App</text><line style="stroke:#181818;stroke-width:0.9375;" x1="1637.475" x2="1745.0073" y1="439.3066" y2="439.3066"/><line style="stroke:#181818;stroke-width:0.9375;" x1="1637.475" x2="1745.0073" y1="454.3066" y2="454.3066"/></g><!--class Event--><g class="entity" data-entity="Event" data-source-line="15" data-uid="ent0004" id="entity_Event"><rect fill="#F1F1F1" height="90" rx="4.6875" ry="4.6875" style="stroke:#181818;stroke-width:0.9375;" width="135.1996" x="2296.7813" y="379.3066"/><ellipse cx="2324.9063" cy="409.3066" fill="#ADD1B2" rx="20.625" ry="20.625" style="stroke:#181818;stroke-width:1.875;"/><path d="M2330.4727,419.8828 Q2329.3887,420.4395 2328.1875,420.7031 Q2326.9863,420.9961 2325.668,420.9961 Q2320.9805,420.9961 2318.4902,417.9199 Q2316.0293,414.8145 2316.0293,408.9551 Q2316.0293,403.0957 2318.4902,399.9902 Q2320.9805,396.8848 2325.668,396.8848 Q2326.9863,396.8848 2328.1875,397.1777 Q2329.418,397.4707 2330.4727,398.0273 L2330.4727,403.125 Q2329.3008,402.041 2328.1875,401.543 Q2327.0742,401.0156 2325.9023,401.0156 Q2323.3828,401.0156 2322.0938,403.0371 Q2320.8047,405.0293 2320.8047,408.9551 Q2320.8047,412.8809 2322.0938,414.9023 Q2323.3828,416.8945 2325.9023,416.8945 Q2327.0742,416.8945 2328.1875,416.3965 Q2329.3008,415.8691 2330.4727,414.7852 L2330.4727,419.8828 Z " fill="#000000"/><text fill="#000000" font-family="sans-serif" font-size="26.25" lengthAdjust="spacing" textLength="75.1996" x="2351.1563" y="418.3942">Event</text><line style="stroke:#181818;stroke-width:0.9375;" x1="2298.6563" x2="2430.1058" y1="439.3066" y2="439.3066"/><line style="stroke:#181818;stroke-width:0.9375;" x1="2298.6563" x2="2430.1058" y1="454.3066" y2="454.3066"/></g><!--class EventProcessor--><g class="entity" data-entity="EventProcessor" data-source-line="16" data-uid="ent0005" id="entity_EventProcessor"><rect fill="#F1F1F1" height="90" rx="4.6875" ry="4.6875" style="stroke:#181818;stroke-width:0.9375;" width="262.6685" x="1901.175" y="669.9316"/><ellipse cx="1929.3" cy="699.9316" fill="#ADD1B2" rx="20.625" ry="20.625" style="stroke:#181818;stroke-width:1.875;"/><path d="M1934.8664,710.5078 Q1933.7824,711.0645 1932.5813,711.3281 Q1931.3801,711.6211 1930.0617,711.6211 Q1925.3742,711.6211 1922.884,708.5449 Q1920.423,705.4395 1920.423,699.5801 Q1920.423,693.7207 1922.884,690.6152 Q1925.3742,687.5098 1930.0617,687.5098 Q1931.3801,687.5098 1932.5813,687.8027 Q1933.8117,688.0957 1934.8664,688.6523 L1934.8664,693.75 Q1933.6945,692.666 1932.5813,692.168 Q1931.468,691.6406 1930.2961,691.6406 Q1927.7766,691.6406 1926.4875,693.6621 Q1925.1984,695.6543 1925.1984,699.5801 Q1925.1984,703.5059 1926.4875,705.5273 Q1927.7766,707.5195 1930.2961,707.5195 Q1931.468,707.5195 1932.5813,707.0215 Q1933.6945,706.4941 1934.8664,705.4102 L1934.8664,710.5078 Z " fill="#000000"/><text fill="#000000" font-family="sans-serif" font-size="26.25" lengthAdjust="spacing" textLength="202.6685" x="1955.55" y="709.0192">EventProcessor</text><line style="stroke:#181818;stroke-width:0.9375;" x1="1903.05" x2="2161.9685" y1="729.9316" y2="729.9316"/><line style="stroke:#181818;stroke-width:0.9375;" x1="1903.05" x2="2161.9685" y1="744.9316" y2="744.9316"/></g><!--class Dashboard--><g class="entity" data-entity="Dashboard" data-source-line="17" data-uid="ent0006" id="entity_Dashboard"><rect fill="#F1F1F1" height="90" rx="4.6875" ry="4.6875" style="stroke:#181818;stroke-width:0.9375;" width="202.8754" x="2028.5625" y="379.3066"/><ellipse cx="2056.6875" cy="409.3066" fill="#ADD1B2" rx="20.625" ry="20.625" style="stroke:#181818;stroke-width:1.875;"/><path d="M2062.2539,419.8828 Q2061.1699,420.4395 2059.9688,420.7031 Q2058.7676,420.9961 2057.4492,420.9961 Q2052.7617,420.9961 2050.2715,417.9199 Q2047.8105,414.8145 2047.8105,408.9551 Q2047.8105,403.0957 2050.2715,399.9902 Q2052.7617,396.8848 2057.4492,396.8848 Q2058.7676,396.8848 2059.9688,397.1777 Q2061.1992,397.4707 2062.2539,398.0273 L2062.2539,403.125 Q2061.082,402.041 2059.9688,401.543 Q2058.8555,401.0156 2057.6836,401.0156 Q2055.1641,401.0156 2053.875,403.0371 Q2052.5859,405.0293 2052.5859,408.9551 Q2052.5859,412.8809 2053.875,414.9023 Q2055.1641,416.8945 2057.6836,416.8945 Q2058.8555,416.8945 2059.9688,416.3965 Q2061.082,415.8691 2062.2539,414.7852 L2062.2539,419.8828 Z " fill="#000000"/><text fill="#000000" font-family="sans-serif" font-size="26.25" lengthAdjust="spacing" textLength="142.8754" x="2082.9375" y="418.3942">Dashboard</text><line style="stroke:#181818;stroke-width:0.9375;" x1="2030.4375" x2="2229.5629" y1="439.3066" y2="439.3066"/><line style="stroke:#181818;stroke-width:0.9375;" x1="2030.4375" x2="2229.5629" y1="454.3066" y2="454.3066"/></g><!--class Logger--><g class="entity" data-entity="Logger" data-source-line="18" data-uid="ent0007" id="entity_Logger"><rect fill="#F1F1F1" height="90" rx="4.6875" ry="4.6875" style="stroke:#181818;stroke-width:0.9375;" width="150.9521" x="1812.6563" y="379.3066"/><ellipse cx="1840.7813" cy="409.3066" fill="#ADD1B2" rx="20.625" ry="20.625" style="stroke:#181818;stroke-width:1.875;"/><path d="M1846.3477,419.8828 Q1845.2637,420.4395 1844.0625,420.7031 Q1842.8613,420.9961 1841.543,420.9961 Q1836.8555,420.9961 1834.3652,417.9199 Q1831.9043,414.8145 1831.9043,408.9551 Q1831.9043,403.0957 1834.3652,399.9902 Q1836.8555,396.8848 1841.543,396.8848 Q1842.8613,396.8848 1844.0625,397.1777 Q1845.293,397.4707 1846.3477,398.0273 L1846.3477,403.125 Q1845.1758,402.041 1844.0625,401.543 Q1842.9492,401.0156 1841.7773,401.0156 Q1839.2578,401.0156 1837.9688,403.0371 Q1836.6797,405.0293 1836.6797,408.9551 Q1836.6797,412.8809 1837.9688,414.9023 Q1839.2578,416.8945 1841.7773,416.8945 Q1842.9492,416.8945 1844.0625,416.3965 Q1845.1758,415.8691 1846.3477,414.7852 L1846.3477,419.8828 Z " fill="#000000"/><text fill="#000000" font-family="sans-serif" font-size="26.25" lengthAdjust="spacing" textLength="90.9521" x="1867.0313" y="418.3942">Logger</text><line style="stroke:#181818;stroke-width:0.9375;" x1="1814.5313" x2="1961.7334" y1="439.3066" y2="439.3066"/><line style="stroke:#181818;stroke-width:0.9375;" x1="1814.5313" x2="1961.7334" y1="454.3066" y2="454.3066"/></g><!--class AbstractEventProcessingPipeline--><g class="entity" data-entity="AbstractEventProcessingPipeline" data-source-line="23" data-uid="ent0009" id="entity_AbstractEventProcessingPipeline"><rect fill="#F1F1F1" height="90" rx="4.6875" ry="4.6875" style="stroke:#181818;stroke-width:0.9375;" width="489.9078" x="3709.425" y="669.9316"/><ellipse cx="3737.55" cy="699.9316" fill="#A9DCDF" rx="20.625" ry="20.625" style="stroke:#181818;stroke-width:1.875;"/><path d="M3737.7551,691.2012 L3735.5871,700.7227 L3739.9523,700.7227 L3737.7551,691.2012 Z M3734.9719,687.0117 L3740.5676,687.0117 L3746.8664,710.2441 L3742.2668,710.2441 L3740.8312,704.502 L3734.6789,704.502 L3733.2727,710.2441 L3728.7023,710.2441 L3734.9719,687.0117 Z " fill="#000000"/><text fill="#000000" font-family="sans-serif" font-size="26.25" font-style="italic" lengthAdjust="spacing" textLength="429.9078" x="3763.8" y="709.0192">AbstractEventProcessingPipeline</text><line style="stroke:#181818;stroke-width:0.9375;" x1="3711.3" x2="4197.4578" y1="729.9316" y2="729.9316"/><line style="stroke:#181818;stroke-width:0.9375;" x1="3711.3" x2="4197.4578" y1="744.9316" y2="744.9316"/></g><!--class DefaultEventProcessingPipeline--><g class="entity" data-entity="DefaultEventProcessingPipeline" data-source-line="24" data-uid="ent0010" id="entity_DefaultEventProcessingPipeline"><rect fill="#F1F1F1" height="90" rx="4.6875" ry="4.6875" style="stroke:#181818;stroke-width:0.9375;" width="475.6293" x="3709.0688" y="379.3066"/><ellipse cx="3737.1938" cy="409.3066" fill="#ADD1B2" rx="20.625" ry="20.625" style="stroke:#181818;stroke-width:1.875;"/><path d="M3742.7602,419.8828 Q3741.6762,420.4395 3740.475,420.7031 Q3739.2738,420.9961 3737.9555,420.9961 Q3733.268,420.9961 3730.7777,417.9199 Q3728.3168,414.8145 3728.3168,408.9551 Q3728.3168,403.0957 3730.7777,399.9902 Q3733.268,396.8848 3737.9555,396.8848 Q3739.2738,396.8848 3740.475,397.1777 Q3741.7055,397.4707 3742.7602,398.0273 L3742.7602,403.125 Q3741.5883,402.041 3740.475,401.543 Q3739.3617,401.0156 3738.1898,401.0156 Q3735.6703,401.0156 3734.3813,403.0371 Q3733.0922,405.0293 3733.0922,408.9551 Q3733.0922,412.8809 3734.3813,414.9023 Q3735.6703,416.8945 3738.1898,416.8945 Q3739.3617,416.8945 3740.475,416.3965 Q3741.5883,415.8691 3742.7602,414.7852 L3742.7602,419.8828 Z " fill="#000000"/><text fill="#000000" font-family="sans-serif" font-size="26.25" lengthAdjust="spacing" textLength="415.6293" x="3763.4438" y="418.3942">DefaultEventProcessingPipeline</text><line style="stroke:#181818;stroke-width:0.9375;" x1="3710.9438" x2="4182.823" y1="439.3066" y2="439.3066"/><line style="stroke:#181818;stroke-width:0.9375;" x1="3710.9438" x2="4182.823" y1="454.3066" y2="454.3066"/></g><!--class EventHandlerStrategy--><g class="entity" data-entity="EventHandlerStrategy" data-source-line="29" data-uid="ent0012" id="entity_EventHandlerStrategy"><rect fill="#F1F1F1" height="90" rx="4.6875" ry="4.6875" style="stroke:#181818;stroke-width:0.9375;" width="351.0315" x="4748.2313" y="872.4316"/><ellipse cx="4776.3563" cy="902.4316" fill="#B4A7E5" rx="20.625" ry="20.625" style="stroke:#181818;stroke-width:1.875;"/><path d="M4768.7098,894.4922 L4768.7098,890.4492 L4782.5672,890.4492 L4782.5672,894.4922 L4777.9383,894.4922 L4777.9383,909.6387 L4782.5672,909.6387 L4782.5672,913.6816 L4768.7098,913.6816 L4768.7098,909.6387 L4773.3387,909.6387 L4773.3387,894.4922 L4768.7098,894.4922 Z " fill="#000000"/><text fill="#000000" font-family="sans-serif" font-size="26.25" font-style="italic" lengthAdjust="spacing" textLength="291.0315" x="4802.6063" y="911.5192">EventHandlerStrategy</text><line style="stroke:#181818;stroke-width:0.9375;" x1="4750.1063" x2="5097.3877" y1="932.4316" y2="932.4316"/><line style="stroke:#181818;stroke-width:0.9375;" x1="4750.1063" x2="5097.3877" y1="947.4316" y2="947.4316"/></g><!--class UserEventHandler--><g class="entity" data-entity="UserEventHandler" data-source-line="30" data-uid="ent0013" id="entity_UserEventHandler"><rect fill="#F1F1F1" height="90" rx="4.6875" ry="4.6875" style="stroke:#181818;stroke-width:0.9375;" width="298.3905" x="4386.4313" y="669.9316"/><ellipse cx="4414.5563" cy="699.9316" fill="#ADD1B2" rx="20.625" ry="20.625" style="stroke:#181818;stroke-width:1.875;"/><path d="M4420.1227,710.5078 Q4419.0387,711.0645 4417.8375,711.3281 Q4416.6363,711.6211 4415.318,711.6211 Q4410.6305,711.6211 4408.1402,708.5449 Q4405.6793,705.4395 4405.6793,699.5801 Q4405.6793,693.7207 4408.1402,690.6152 Q4410.6305,687.5098 4415.318,687.5098 Q4416.6363,687.5098 4417.8375,687.8027 Q4419.068,688.0957 4420.1227,688.6523 L4420.1227,693.75 Q4418.9508,692.666 4417.8375,692.168 Q4416.7242,691.6406 4415.5523,691.6406 Q4413.0328,691.6406 4411.7438,693.6621 Q4410.4547,695.6543 4410.4547,699.5801 Q4410.4547,703.5059 4411.7438,705.5273 Q4413.0328,707.5195 4415.5523,707.5195 Q4416.7242,707.5195 4417.8375,707.0215 Q4418.9508,706.4941 4420.1227,705.4102 L4420.1227,710.5078 Z " fill="#000000"/><text fill="#000000" font-family="sans-serif" font-size="26.25" lengthAdjust="spacing" textLength="238.3905" x="4440.8063" y="709.0192">UserEventHandler</text><line style="stroke:#181818;stroke-width:0.9375;" x1="4388.3063" x2="4682.9468" y1="729.9316" y2="729.9316"/><line style="stroke:#181818;stroke-width:0.9375;" x1="4388.3063" x2="4682.9468" y1="744.9316" y2="744.9316"/></g><!--class SecurityEventHandler--><g class="entity" data-entity="SecurityEventHandler" data-source-line="31" data-uid="ent0014" id="entity_SecurityEventHandler"><rect fill="#F1F1F1" height="90" rx="4.6875" ry="4.6875" style="stroke:#181818;stroke-width:0.9375;" width="346.3531" x="4750.575" y="669.9316"/><ellipse cx="4778.7" cy="699.9316" fill="#ADD1B2" rx="20.625" ry="20.625" style="stroke:#181818;stroke-width:1.875;"/><path d="M4784.2664,710.5078 Q4783.1824,711.0645 4781.9813,711.3281 Q4780.7801,711.6211 4779.4617,711.6211 Q4774.7742,711.6211 4772.284,708.5449 Q4769.823,705.4395 4769.823,699.5801 Q4769.823,693.7207 4772.284,690.6152 Q4774.7742,687.5098 4779.4617,687.5098 Q4780.7801,687.5098 4781.9813,687.8027 Q4783.2117,688.0957 4784.2664,688.6523 L4784.2664,693.75 Q4783.0945,692.666 4781.9813,692.168 Q4780.868,691.6406 4779.6961,691.6406 Q4777.1766,691.6406 4775.8875,693.6621 Q4774.5984,695.6543 4774.5984,699.5801 Q4774.5984,703.5059 4775.8875,705.5273 Q4777.1766,707.5195 4779.6961,707.5195 Q4780.868,707.5195 4781.9813,707.0215 Q4783.0945,706.4941 4784.2664,705.4102 L4784.2664,710.5078 Z " fill="#000000"/><text fill="#000000" font-family="sans-serif" font-size="26.25" lengthAdjust="spacing" textLength="286.3531" x="4804.95" y="709.0192">SecurityEventHandler</text><line style="stroke:#181818;stroke-width:0.9375;" x1="4752.45" x2="5095.0531" y1="729.9316" y2="729.9316"/><line style="stroke:#181818;stroke-width:0.9375;" x1="4752.45" x2="5095.0531" y1="744.9316" y2="744.9316"/></g><!--class SystemEventHandler--><g class="entity" data-entity="SystemEventHandler" data-source-line="32" data-uid="ent0015" id="entity_SystemEventHandler"><rect fill="#F1F1F1" height="90" rx="4.6875" ry="4.6875" style="stroke:#181818;stroke-width:0.9375;" width="336.4453" x="5162.4" y="669.9316"/><ellipse cx="5190.525" cy="699.9316" fill="#ADD1B2" rx="20.625" ry="20.625" style="stroke:#181818;stroke-width:1.875;"/><path d="M5196.0914,710.5078 Q5195.0074,711.0645 5193.8063,711.3281 Q5192.6051,711.6211 5191.2867,711.6211 Q5186.5992,711.6211 5184.109,708.5449 Q5181.648,705.4395 5181.648,699.5801 Q5181.648,693.7207 5184.109,690.6152 Q5186.5992,687.5098 5191.2867,687.5098 Q5192.6051,687.5098 5193.8063,687.8027 Q5195.0367,688.0957 5196.0914,688.6523 L5196.0914,693.75 Q5194.9195,692.666 5193.8063,692.168 Q5192.693,691.6406 5191.5211,691.6406 Q5189.0016,691.6406 5187.7125,693.6621 Q5186.4234,695.6543 5186.4234,699.5801 Q5186.4234,703.5059 5187.7125,705.5273 Q5189.0016,707.5195 5191.5211,707.5195 Q5192.693,707.5195 5193.8063,707.0215 Q5194.9195,706.4941 5196.0914,705.4102 L5196.0914,710.5078 Z " fill="#000000"/><text fill="#000000" font-family="sans-serif" font-size="26.25" lengthAdjust="spacing" textLength="276.4453" x="5216.775" y="709.0192">SystemEventHandler</text><line style="stroke:#181818;stroke-width:0.9375;" x1="5164.275" x2="5496.9703" y1="729.9316" y2="729.9316"/><line style="stroke:#181818;stroke-width:0.9375;" x1="5164.275" x2="5496.9703" y1="744.9316" y2="744.9316"/></g><!--class EventHandlerFactory--><g class="entity" data-entity="EventHandlerFactory" data-source-line="33" data-uid="ent0016" id="entity_EventHandlerFactory"><rect fill="#F1F1F1" height="90" rx="4.6875" ry="4.6875" style="stroke:#181818;stroke-width:0.9375;" width="336.8555" x="5565.3188" y="669.9316"/><ellipse cx="5593.4438" cy="699.9316" fill="#ADD1B2" rx="20.625" ry="20.625" style="stroke:#181818;stroke-width:1.875;"/><path d="M5599.0102,710.5078 Q5597.9262,711.0645 5596.725,711.3281 Q5595.5238,711.6211 5594.2055,711.6211 Q5589.518,711.6211 5587.0277,708.5449 Q5584.5668,705.4395 5584.5668,699.5801 Q5584.5668,693.7207 5587.0277,690.6152 Q5589.518,687.5098 5594.2055,687.5098 Q5595.5238,687.5098 5596.725,687.8027 Q5597.9555,688.0957 5599.0102,688.6523 L5599.0102,693.75 Q5597.8383,692.666 5596.725,692.168 Q5595.6117,691.6406 5594.4398,691.6406 Q5591.9203,691.6406 5590.6313,693.6621 Q5589.3422,695.6543 5589.3422,699.5801 Q5589.3422,703.5059 5590.6313,705.5273 Q5591.9203,707.5195 5594.4398,707.5195 Q5595.6117,707.5195 5596.725,707.0215 Q5597.8383,706.4941 5599.0102,705.4102 L5599.0102,710.5078 Z " fill="#000000"/><text fill="#000000" font-family="sans-serif" font-size="26.25" lengthAdjust="spacing" textLength="276.8555" x="5619.6938" y="709.0192">EventHandlerFactory</text><line style="stroke:#181818;stroke-width:0.9375;" x1="5567.1938" x2="5900.2992" y1="729.9316" y2="729.9316"/><line style="stroke:#181818;stroke-width:0.9375;" x1="5567.1938" x2="5900.2992" y1="744.9316" y2="744.9316"/></g><!--class EventPayload--><g class="entity" data-entity="EventPayload" data-source-line="38" data-uid="ent0018" id="entity_EventPayload"><rect fill="#F1F1F1" height="90" rx="4.6875" ry="4.6875" style="stroke:#181818;stroke-width:0.9375;" width="238.7512" x="6298.7438" y="669.9316"/><ellipse cx="6326.8688" cy="699.9316" fill="#B4A7E5" rx="20.625" ry="20.625" style="stroke:#181818;stroke-width:1.875;"/><path d="M6319.2223,691.9922 L6319.2223,687.9492 L6333.0797,687.9492 L6333.0797,691.9922 L6328.4508,691.9922 L6328.4508,707.1387 L6333.0797,707.1387 L6333.0797,711.1816 L6319.2223,711.1816 L6319.2223,707.1387 L6323.8512,707.1387 L6323.8512,691.9922 L6319.2223,691.9922 Z " fill="#000000"/><text fill="#000000" font-family="sans-serif" font-size="26.25" font-style="italic" lengthAdjust="spacing" textLength="178.7512" x="6353.1188" y="709.0192">EventPayload</text><line style="stroke:#181818;stroke-width:0.9375;" x1="6300.6188" x2="6535.62" y1="729.9316" y2="729.9316"/><line style="stroke:#181818;stroke-width:0.9375;" x1="6300.6188" x2="6535.62" y1="744.9316" y2="744.9316"/></g><!--class RawPayload--><g class="entity" data-entity="RawPayload" data-source-line="39" data-uid="ent0019" id="entity_RawPayload"><rect fill="#F1F1F1" height="90" rx="4.6875" ry="4.6875" style="stroke:#181818;stroke-width:0.9375;" width="219.3457" x="6145.3313" y="379.3066"/><ellipse cx="6173.4563" cy="409.3066" fill="#ADD1B2" rx="20.625" ry="20.625" style="stroke:#181818;stroke-width:1.875;"/><path d="M6179.0227,419.8828 Q6177.9387,420.4395 6176.7375,420.7031 Q6175.5363,420.9961 6174.218,420.9961 Q6169.5305,420.9961 6167.0402,417.9199 Q6164.5793,414.8145 6164.5793,408.9551 Q6164.5793,403.0957 6167.0402,399.9902 Q6169.5305,396.8848 6174.218,396.8848 Q6175.5363,396.8848 6176.7375,397.1777 Q6177.968,397.4707 6179.0227,398.0273 L6179.0227,403.125 Q6177.8508,402.041 6176.7375,401.543 Q6175.6242,401.0156 6174.4523,401.0156 Q6171.9328,401.0156 6170.6438,403.0371 Q6169.3547,405.0293 6169.3547,408.9551 Q6169.3547,412.8809 6170.6438,414.9023 Q6171.9328,416.8945 6174.4523,416.8945 Q6175.6242,416.8945 6176.7375,416.3965 Q6177.8508,415.8691 6179.0227,414.7852 L6179.0227,419.8828 Z " fill="#000000"/><text fill="#000000" font-family="sans-serif" font-size="26.25" lengthAdjust="spacing" textLength="159.3457" x="6199.7063" y="418.3942">RawPayload</text><line style="stroke:#181818;stroke-width:0.9375;" x1="6147.2063" x2="6362.802" y1="439.3066" y2="439.3066"/><line style="stroke:#181818;stroke-width:0.9375;" x1="6147.2063" x2="6362.802" y1="454.3066" y2="454.3066"/></g><!--class PayloadDecorator--><g class="entity" data-entity="PayloadDecorator" data-source-line="40" data-uid="ent0020" id="entity_PayloadDecorator"><rect fill="#F1F1F1" height="90" rx="4.6875" ry="4.6875" style="stroke:#181818;stroke-width:0.9375;" width="294.4299" x="6430.2938" y="379.3066"/><ellipse cx="6458.4188" cy="409.3066" fill="#A9DCDF" rx="20.625" ry="20.625" style="stroke:#181818;stroke-width:1.875;"/><path d="M6458.6238,400.5762 L6456.4559,410.0977 L6460.8211,410.0977 L6458.6238,400.5762 Z M6455.8406,396.3867 L6461.4363,396.3867 L6467.7352,419.6191 L6463.1355,419.6191 L6461.7,413.877 L6455.5477,413.877 L6454.1414,419.6191 L6449.5711,419.6191 L6455.8406,396.3867 Z " fill="#000000"/><text fill="#000000" font-family="sans-serif" font-size="26.25" font-style="italic" lengthAdjust="spacing" textLength="234.4299" x="6484.6688" y="418.3942">PayloadDecorator</text><line style="stroke:#181818;stroke-width:0.9375;" x1="6432.1688" x2="6722.8487" y1="439.3066" y2="439.3066"/><line style="stroke:#181818;stroke-width:0.9375;" x1="6432.1688" x2="6722.8487" y1="454.3066" y2="454.3066"/></g><!--class EncryptedPayloadDecorator--><g class="entity" data-entity="EncryptedPayloadDecorator" data-source-line="41" data-uid="ent0021" id="entity_EncryptedPayloadDecorator"><rect fill="#F1F1F1" height="90" rx="4.6875" ry="4.6875" style="stroke:#181818;stroke-width:0.9375;" width="428.1793" x="6140.2875" y="163.6816"/><ellipse cx="6168.4125" cy="193.6816" fill="#ADD1B2" rx="20.625" ry="20.625" style="stroke:#181818;stroke-width:1.875;"/><path d="M6173.9789,204.2578 Q6172.8949,204.8145 6171.6938,205.0781 Q6170.4926,205.3711 6169.1742,205.3711 Q6164.4867,205.3711 6161.9965,202.2949 Q6159.5355,199.1895 6159.5355,193.3301 Q6159.5355,187.4707 6161.9965,184.3652 Q6164.4867,181.2598 6169.1742,181.2598 Q6170.4926,181.2598 6171.6938,181.5527 Q6172.9242,181.8457 6173.9789,182.4023 L6173.9789,187.5 Q6172.807,186.416 6171.6938,185.918 Q6170.5805,185.3906 6169.4086,185.3906 Q6166.8891,185.3906 6165.6,187.4121 Q6164.3109,189.4043 6164.3109,193.3301 Q6164.3109,197.2559 6165.6,199.2773 Q6166.8891,201.2695 6169.4086,201.2695 Q6170.5805,201.2695 6171.6938,200.7715 Q6172.807,200.2441 6173.9789,199.1602 L6173.9789,204.2578 Z " fill="#000000"/><text fill="#000000" font-family="sans-serif" font-size="26.25" lengthAdjust="spacing" textLength="368.1793" x="6194.6625" y="202.7692">EncryptedPayloadDecorator</text><line style="stroke:#181818;stroke-width:0.9375;" x1="6142.1625" x2="6566.5918" y1="223.6816" y2="223.6816"/><line style="stroke:#181818;stroke-width:0.9375;" x1="6142.1625" x2="6566.5918" y1="238.6816" y2="238.6816"/></g><!--class CompressedPayloadDecorator--><g class="entity" data-entity="CompressedPayloadDecorator" data-source-line="42" data-uid="ent0022" id="entity_CompressedPayloadDecorator"><rect fill="#F1F1F1" height="90" rx="4.6875" ry="4.6875" style="stroke:#181818;stroke-width:0.9375;" width="458.1592" x="6633.4125" y="163.6816"/><ellipse cx="6661.5375" cy="193.6816" fill="#ADD1B2" rx="20.625" ry="20.625" style="stroke:#181818;stroke-width:1.875;"/><path d="M6667.1039,204.2578 Q6666.0199,204.8145 6664.8188,205.0781 Q6663.6176,205.3711 6662.2992,205.3711 Q6657.6117,205.3711 6655.1215,202.2949 Q6652.6605,199.1895 6652.6605,193.3301 Q6652.6605,187.4707 6655.1215,184.3652 Q6657.6117,181.2598 6662.2992,181.2598 Q6663.6176,181.2598 6664.8188,181.5527 Q6666.0492,181.8457 6667.1039,182.4023 L6667.1039,187.5 Q6665.932,186.416 6664.8188,185.918 Q6663.7055,185.3906 6662.5336,185.3906 Q6660.0141,185.3906 6658.725,187.4121 Q6657.4359,189.4043 6657.4359,193.3301 Q6657.4359,197.2559 6658.725,199.2773 Q6660.0141,201.2695 6662.5336,201.2695 Q6663.7055,201.2695 6664.8188,200.7715 Q6665.932,200.2441 6667.1039,199.1602 L6667.1039,204.2578 Z " fill="#000000"/><text fill="#000000" font-family="sans-serif" font-size="26.25" lengthAdjust="spacing" textLength="398.1592" x="6687.7875" y="202.7692">CompressedPayloadDecorator</text><line style="stroke:#181818;stroke-width:0.9375;" x1="6635.2875" x2="7089.6967" y1="223.6816" y2="223.6816"/><line style="stroke:#181818;stroke-width:0.9375;" x1="6635.2875" x2="7089.6967" y1="238.6816" y2="238.6816"/></g><!--class MetadataPayloadDecorator--><g class="entity" data-entity="MetadataPayloadDecorator" data-source-line="43" data-uid="ent0023" id="entity_MetadataPayloadDecorator"><rect fill="#F1F1F1" height="90" rx="4.6875" ry="4.6875" style="stroke:#181818;stroke-width:0.9375;" width="418.7329" x="7157.5125" y="163.6816"/><ellipse cx="7185.6375" cy="193.6816" fill="#ADD1B2" rx="20.625" ry="20.625" style="stroke:#181818;stroke-width:1.875;"/><path d="M7191.2039,204.2578 Q7190.1199,204.8145 7188.9188,205.0781 Q7187.7176,205.3711 7186.3992,205.3711 Q7181.7117,205.3711 7179.2215,202.2949 Q7176.7605,199.1895 7176.7605,193.3301 Q7176.7605,187.4707 7179.2215,184.3652 Q7181.7117,181.2598 7186.3992,181.2598 Q7187.7176,181.2598 7188.9188,181.5527 Q7190.1492,181.8457 7191.2039,182.4023 L7191.2039,187.5 Q7190.032,186.416 7188.9188,185.918 Q7187.8055,185.3906 7186.6336,185.3906 Q7184.1141,185.3906 7182.825,187.4121 Q7181.5359,189.4043 7181.5359,193.3301 Q7181.5359,197.2559 7182.825,199.2773 Q7184.1141,201.2695 7186.6336,201.2695 Q7187.8055,201.2695 7188.9188,200.7715 Q7190.032,200.2441 7191.2039,199.1602 L7191.2039,204.2578 Z " fill="#000000"/><text fill="#000000" font-family="sans-serif" font-size="26.25" lengthAdjust="spacing" textLength="358.7329" x="7211.8875" y="202.7692">MetadataPayloadDecorator</text><line style="stroke:#181818;stroke-width:0.9375;" x1="7159.3875" x2="7574.3704" y1="223.6816" y2="223.6816"/><line style="stroke:#181818;stroke-width:0.9375;" x1="7159.3875" x2="7574.3704" y1="238.6816" y2="238.6816"/></g><!--class EventNotification--><g class="entity" data-entity="EventNotification" data-source-line="48" data-uid="ent0025" id="entity_EventNotification"><rect fill="#F1F1F1" height="90" rx="4.6875" ry="4.6875" style="stroke:#181818;stroke-width:0.9375;" width="285.8167" x="824.5875" y="163.6816"/><ellipse cx="852.7125" cy="193.6816" fill="#ADD1B2" rx="20.625" ry="20.625" style="stroke:#181818;stroke-width:1.875;"/><path d="M858.2789,204.2578 Q857.1949,204.8145 855.9938,205.0781 Q854.7926,205.3711 853.4742,205.3711 Q848.7867,205.3711 846.2965,202.2949 Q843.8355,199.1895 843.8355,193.3301 Q843.8355,187.4707 846.2965,184.3652 Q848.7867,181.2598 853.4742,181.2598 Q854.7926,181.2598 855.9938,181.5527 Q857.2242,181.8457 858.2789,182.4023 L858.2789,187.5 Q857.107,186.416 855.9938,185.918 Q854.8805,185.3906 853.7086,185.3906 Q851.1891,185.3906 849.9,187.4121 Q848.6109,189.4043 848.6109,193.3301 Q848.6109,197.2559 849.9,199.2773 Q851.1891,201.2695 853.7086,201.2695 Q854.8805,201.2695 855.9938,200.7715 Q857.107,200.2441 858.2789,199.1602 L858.2789,204.2578 Z " fill="#000000"/><text fill="#000000" font-family="sans-serif" font-size="26.25" lengthAdjust="spacing" textLength="225.8167" x="878.9625" y="202.7692">EventNotification</text><line style="stroke:#181818;stroke-width:0.9375;" x1="826.4625" x2="1108.5292" y1="223.6816" y2="223.6816"/><line style="stroke:#181818;stroke-width:0.9375;" x1="826.4625" x2="1108.5292" y1="238.6816" y2="238.6816"/></g><!--class EventSubscriber--><g class="entity" data-entity="EventSubscriber" data-source-line="49" data-uid="ent0026" id="entity_EventSubscriber"><rect fill="#F1F1F1" height="90" rx="4.6875" ry="4.6875" style="stroke:#181818;stroke-width:0.9375;" width="274.9603" x="449.4" y="379.3066"/><ellipse cx="477.525" cy="409.3066" fill="#B4A7E5" rx="20.625" ry="20.625" style="stroke:#181818;stroke-width:1.875;"/><path d="M469.8785,401.3672 L469.8785,397.3242 L483.7359,397.3242 L483.7359,401.3672 L479.107,401.3672 L479.107,416.5137 L483.7359,416.5137 L483.7359,420.5566 L469.8785,420.5566 L469.8785,416.5137 L474.5074,416.5137 L474.5074,401.3672 L469.8785,401.3672 Z " fill="#000000"/><text fill="#000000" font-family="sans-serif" font-size="26.25" font-style="italic" lengthAdjust="spacing" textLength="214.9603" x="503.775" y="418.3942">EventSubscriber</text><line style="stroke:#181818;stroke-width:0.9375;" x1="451.275" x2="722.4853" y1="439.3066" y2="439.3066"/><line style="stroke:#181818;stroke-width:0.9375;" x1="451.275" x2="722.4853" y1="454.3066" y2="454.3066"/></g><!--class EventPublisher--><g class="entity" data-entity="EventPublisher" data-source-line="50" data-uid="ent0027" id="entity_EventPublisher"><rect fill="#F1F1F1" height="90" rx="4.6875" ry="4.6875" style="stroke:#181818;stroke-width:0.9375;" width="256.17" x="1176.9188" y="163.6816"/><ellipse cx="1205.0438" cy="193.6816" fill="#ADD1B2" rx="20.625" ry="20.625" style="stroke:#181818;stroke-width:1.875;"/><path d="M1210.6102,204.2578 Q1209.5262,204.8145 1208.325,205.0781 Q1207.1238,205.3711 1205.8055,205.3711 Q1201.118,205.3711 1198.6277,202.2949 Q1196.1668,199.1895 1196.1668,193.3301 Q1196.1668,187.4707 1198.6277,184.3652 Q1201.118,181.2598 1205.8055,181.2598 Q1207.1238,181.2598 1208.325,181.5527 Q1209.5555,181.8457 1210.6102,182.4023 L1210.6102,187.5 Q1209.4383,186.416 1208.325,185.918 Q1207.2117,185.3906 1206.0398,185.3906 Q1203.5203,185.3906 1202.2313,187.4121 Q1200.9422,189.4043 1200.9422,193.3301 Q1200.9422,197.2559 1202.2313,199.2773 Q1203.5203,201.2695 1206.0398,201.2695 Q1207.2117,201.2695 1208.325,200.7715 Q1209.4383,200.2441 1210.6102,199.1602 L1210.6102,204.2578 Z " fill="#000000"/><text fill="#000000" font-family="sans-serif" font-size="26.25" lengthAdjust="spacing" textLength="196.17" x="1231.2938" y="202.7692">EventPublisher</text><line style="stroke:#181818;stroke-width:0.9375;" x1="1178.7938" x2="1431.2138" y1="223.6816" y2="223.6816"/><line style="stroke:#181818;stroke-width:0.9375;" x1="1178.7938" x2="1431.2138" y1="238.6816" y2="238.6816"/></g><!--class DashboardSubscriber--><g class="entity" data-entity="DashboardSubscriber" data-source-line="51" data-uid="ent0028" id="entity_DashboardSubscriber"><rect fill="#F1F1F1" height="90" rx="4.6875" ry="4.6875" style="stroke:#181818;stroke-width:0.9375;" width="342.6361" x="415.5563" y="163.6816"/><ellipse cx="443.6813" cy="193.6816" fill="#ADD1B2" rx="20.625" ry="20.625" style="stroke:#181818;stroke-width:1.875;"/><path d="M449.2477,204.2578 Q448.1637,204.8145 446.9625,205.0781 Q445.7613,205.3711 444.443,205.3711 Q439.7555,205.3711 437.2652,202.2949 Q434.8043,199.1895 434.8043,193.3301 Q434.8043,187.4707 437.2652,184.3652 Q439.7555,181.2598 444.443,181.2598 Q445.7613,181.2598 446.9625,181.5527 Q448.193,181.8457 449.2477,182.4023 L449.2477,187.5 Q448.0758,186.416 446.9625,185.918 Q445.8492,185.3906 444.6773,185.3906 Q442.1578,185.3906 440.8688,187.4121 Q439.5797,189.4043 439.5797,193.3301 Q439.5797,197.2559 440.8688,199.2773 Q442.1578,201.2695 444.6773,201.2695 Q445.8492,201.2695 446.9625,200.7715 Q448.0758,200.2441 449.2477,199.1602 L449.2477,204.2578 Z " fill="#000000"/><text fill="#000000" font-family="sans-serif" font-size="26.25" lengthAdjust="spacing" textLength="282.6361" x="469.9313" y="202.7692">DashboardSubscriber</text><line style="stroke:#181818;stroke-width:0.9375;" x1="417.4313" x2="756.3174" y1="223.6816" y2="223.6816"/><line style="stroke:#181818;stroke-width:0.9375;" x1="417.4313" x2="756.3174" y1="238.6816" y2="238.6816"/></g><!--class LoggerSubscriber--><g class="entity" data-entity="LoggerSubscriber" data-source-line="52" data-uid="ent0029" id="entity_LoggerSubscriber"><rect fill="#F1F1F1" height="90" rx="4.6875" ry="4.6875" style="stroke:#181818;stroke-width:0.9375;" width="290.7129" x="59.025" y="163.6816"/><ellipse cx="87.15" cy="193.6816" fill="#ADD1B2" rx="20.625" ry="20.625" style="stroke:#181818;stroke-width:1.875;"/><path d="M92.7164,204.2578 Q91.6324,204.8145 90.4312,205.0781 Q89.2301,205.3711 87.9117,205.3711 Q83.2242,205.3711 80.734,202.2949 Q78.273,199.1895 78.273,193.3301 Q78.273,187.4707 80.734,184.3652 Q83.2242,181.2598 87.9117,181.2598 Q89.2301,181.2598 90.4312,181.5527 Q91.6617,181.8457 92.7164,182.4023 L92.7164,187.5 Q91.5445,186.416 90.4312,185.918 Q89.318,185.3906 88.1461,185.3906 Q85.6266,185.3906 84.3375,187.4121 Q83.0484,189.4043 83.0484,193.3301 Q83.0484,197.2559 84.3375,199.2773 Q85.6266,201.2695 88.1461,201.2695 Q89.318,201.2695 90.4312,200.7715 Q91.5445,200.2441 92.7164,199.1602 L92.7164,204.2578 Z " fill="#000000"/><text fill="#000000" font-family="sans-serif" font-size="26.25" lengthAdjust="spacing" textLength="230.7129" x="113.4" y="202.7692">LoggerSubscriber</text><line style="stroke:#181818;stroke-width:0.9375;" x1="60.9" x2="347.8629" y1="223.6816" y2="223.6816"/><line style="stroke:#181818;stroke-width:0.9375;" x1="60.9" x2="347.8629" y1="238.6816" y2="238.6816"/></g><!--class EventRepository--><g class="entity" data-entity="EventRepository" data-source-line="57" data-uid="ent0031" id="entity_EventRepository"><rect fill="#F1F1F1" height="90" rx="4.6875" ry="4.6875" style="stroke:#181818;stroke-width:0.9375;" width="275.9601" x="3135.7688" y="669.9316"/><ellipse cx="3163.8938" cy="699.9316" fill="#B4A7E5" rx="20.625" ry="20.625" style="stroke:#181818;stroke-width:1.875;"/><path d="M3156.2473,691.9922 L3156.2473,687.9492 L3170.1047,687.9492 L3170.1047,691.9922 L3165.4758,691.9922 L3165.4758,707.1387 L3170.1047,707.1387 L3170.1047,711.1816 L3156.2473,711.1816 L3156.2473,707.1387 L3160.8762,707.1387 L3160.8762,691.9922 L3156.2473,691.9922 Z " fill="#000000"/><text fill="#000000" font-family="sans-serif" font-size="26.25" font-style="italic" lengthAdjust="spacing" textLength="215.9601" x="3190.1438" y="709.0192">EventRepository</text><line style="stroke:#181818;stroke-width:0.9375;" x1="3137.6438" x2="3409.8538" y1="729.9316" y2="729.9316"/><line style="stroke:#181818;stroke-width:0.9375;" x1="3137.6438" x2="3409.8538" y1="744.9316" y2="744.9316"/></g><!--class EventRepositoryProxy--><g class="entity" data-entity="EventRepositoryProxy" data-source-line="58" data-uid="ent0032" id="entity_EventRepositoryProxy"><rect fill="#F1F1F1" height="90" rx="4.6875" ry="4.6875" style="stroke:#181818;stroke-width:0.9375;" width="349.7113" x="3098.8875" y="379.3066"/><ellipse cx="3127.0125" cy="409.3066" fill="#ADD1B2" rx="20.625" ry="20.625" style="stroke:#181818;stroke-width:1.875;"/><path d="M3132.5789,419.8828 Q3131.4949,420.4395 3130.2938,420.7031 Q3129.0926,420.9961 3127.7742,420.9961 Q3123.0867,420.9961 3120.5965,417.9199 Q3118.1355,414.8145 3118.1355,408.9551 Q3118.1355,403.0957 3120.5965,399.9902 Q3123.0867,396.8848 3127.7742,396.8848 Q3129.0926,396.8848 3130.2938,397.1777 Q3131.5242,397.4707 3132.5789,398.0273 L3132.5789,403.125 Q3131.407,402.041 3130.2938,401.543 Q3129.1805,401.0156 3128.0086,401.0156 Q3125.4891,401.0156 3124.2,403.0371 Q3122.9109,405.0293 3122.9109,408.9551 Q3122.9109,412.8809 3124.2,414.9023 Q3125.4891,416.8945 3128.0086,416.8945 Q3129.1805,416.8945 3130.2938,416.3965 Q3131.407,415.8691 3132.5789,414.7852 L3132.5789,419.8828 Z " fill="#000000"/><text fill="#000000" font-family="sans-serif" font-size="26.25" lengthAdjust="spacing" textLength="289.7113" x="3153.2625" y="418.3942">EventRepositoryProxy</text><line style="stroke:#181818;stroke-width:0.9375;" x1="3100.7625" x2="3446.7238" y1="439.3066" y2="439.3066"/><line style="stroke:#181818;stroke-width:0.9375;" x1="3100.7625" x2="3446.7238" y1="454.3066" y2="454.3066"/></g><!--class DatabaseEventRepository--><g class="entity" data-entity="DatabaseEventRepository" data-source-line="59" data-uid="ent0033" id="entity_DatabaseEventRepository"><rect fill="#F1F1F1" height="90" rx="4.6875" ry="4.6875" style="stroke:#181818;stroke-width:0.9375;" width="401.2115" x="2632.5188" y="379.3066"/><ellipse cx="2660.6438" cy="409.3066" fill="#ADD1B2" rx="20.625" ry="20.625" style="stroke:#181818;stroke-width:1.875;"/><path d="M2666.2102,419.8828 Q2665.1262,420.4395 2663.925,420.7031 Q2662.7238,420.9961 2661.4055,420.9961 Q2656.718,420.9961 2654.2277,417.9199 Q2651.7668,414.8145 2651.7668,408.9551 Q2651.7668,403.0957 2654.2277,399.9902 Q2656.718,396.8848 2661.4055,396.8848 Q2662.7238,396.8848 2663.925,397.1777 Q2665.1555,397.4707 2666.2102,398.0273 L2666.2102,403.125 Q2665.0383,402.041 2663.925,401.543 Q2662.8117,401.0156 2661.6398,401.0156 Q2659.1203,401.0156 2657.8313,403.0371 Q2656.5422,405.0293 2656.5422,408.9551 Q2656.5422,412.8809 2657.8313,414.9023 Q2659.1203,416.8945 2661.6398,416.8945 Q2662.8117,416.8945 2663.925,416.3965 Q2665.0383,415.8691 2666.2102,414.7852 L2666.2102,419.8828 Z " fill="#000000"/><text fill="#000000" font-family="sans-serif" font-size="26.25" lengthAdjust="spacing" textLength="341.2115" x="2686.8938" y="418.3942">DatabaseEventRepository</text><line style="stroke:#181818;stroke-width:0.9375;" x1="2634.3938" x2="3031.8553" y1="439.3066" y2="439.3066"/><line style="stroke:#181818;stroke-width:0.9375;" x1="2634.3938" x2="3031.8553" y1="454.3066" y2="454.3066"/></g><!--class ConnectionPool--><g class="entity" data-entity="ConnectionPool" data-source-line="60" data-uid="ent0034" id="entity_ConnectionPool"><rect fill="#F1F1F1" height="90" rx="4.6875" ry="4.6875" style="stroke:#181818;stroke-width:0.9375;" width="263.7708" x="2701.2375" y="669.9316"/><ellipse cx="2729.3625" cy="699.9316" fill="#ADD1B2" rx="20.625" ry="20.625" style="stroke:#181818;stroke-width:1.875;"/><path d="M2734.9289,710.5078 Q2733.8449,711.0645 2732.6438,711.3281 Q2731.4426,711.6211 2730.1242,711.6211 Q2725.4367,711.6211 2722.9465,708.5449 Q2720.4855,705.4395 2720.4855,699.5801 Q2720.4855,693.7207 2722.9465,690.6152 Q2725.4367,687.5098 2730.1242,687.5098 Q2731.4426,687.5098 2732.6438,687.8027 Q2733.8742,688.0957 2734.9289,688.6523 L2734.9289,693.75 Q2733.757,692.666 2732.6438,692.168 Q2731.5305,691.6406 2730.3586,691.6406 Q2727.8391,691.6406 2726.55,693.6621 Q2725.2609,695.6543 2725.2609,699.5801 Q2725.2609,703.5059 2726.55,705.5273 Q2727.8391,707.5195 2730.3586,707.5195 Q2731.5305,707.5195 2732.6438,707.0215 Q2733.757,706.4941 2734.9289,705.4102 L2734.9289,710.5078 Z " fill="#000000"/><text fill="#000000" font-family="sans-serif" font-size="26.25" lengthAdjust="spacing" textLength="203.7708" x="2755.6125" y="709.0192">ConnectionPool</text><line style="stroke:#181818;stroke-width:0.9375;" x1="2703.1125" x2="2963.1333" y1="729.9316" y2="729.9316"/><line style="stroke:#181818;stroke-width:0.9375;" x1="2703.1125" x2="2963.1333" y1="744.9316" y2="744.9316"/></g><!--class Database--><g class="entity" data-entity="Database" data-source-line="61" data-uid="ent0035" id="entity_Database"><rect fill="#F1F1F1" height="90" rx="4.6875" ry="4.6875" style="stroke:#181818;stroke-width:0.9375;" width="185.2515" x="2740.5" y="872.4316"/><ellipse cx="2768.625" cy="902.4316" fill="#ADD1B2" rx="20.625" ry="20.625" style="stroke:#181818;stroke-width:1.875;"/><path d="M2774.1914,913.0078 Q2773.1074,913.5645 2771.9063,913.8281 Q2770.7051,914.1211 2769.3867,914.1211 Q2764.6992,914.1211 2762.209,911.0449 Q2759.748,907.9395 2759.748,902.0801 Q2759.748,896.2207 2762.209,893.1152 Q2764.6992,890.0098 2769.3867,890.0098 Q2770.7051,890.0098 2771.9063,890.3027 Q2773.1367,890.5957 2774.1914,891.1523 L2774.1914,896.25 Q2773.0195,895.166 2771.9063,894.668 Q2770.793,894.1406 2769.6211,894.1406 Q2767.1016,894.1406 2765.8125,896.1621 Q2764.5234,898.1543 2764.5234,902.0801 Q2764.5234,906.0059 2765.8125,908.0273 Q2767.1016,910.0195 2769.6211,910.0195 Q2770.793,910.0195 2771.9063,909.5215 Q2773.0195,908.9941 2774.1914,907.9102 L2774.1914,913.0078 Z " fill="#000000"/><text fill="#000000" font-family="sans-serif" font-size="26.25" lengthAdjust="spacing" textLength="125.2515" x="2794.875" y="911.5192">Database</text><line style="stroke:#181818;stroke-width:0.9375;" x1="2742.375" x2="2923.8765" y1="932.4316" y2="932.4316"/><line style="stroke:#181818;stroke-width:0.9375;" x1="2742.375" x2="2923.8765" y1="947.4316" y2="947.4316"/></g><!--link App to EventProcessor--><g class="link" data-entity-1="App" data-entity-2="EventProcessor" data-link-type="dependency" data-source-line="65" data-uid="lnk36" id="link_App_EventProcessor"><path codeLine="65" d="M1691.25,469.7191 C1691.25,551.4504 1691.25,714.9316 1691.25,714.9316 C1691.25,714.9316 1793.2875,714.9316 1889.3063,714.9316" fill="none" id="App-to-EventProcessor" style="stroke:#181818;stroke-width:1.875;"/><polygon fill="#181818" points="1900.5563,714.9316,1883.6813,707.4316,1891.1813,714.9316,1883.6813,722.4316,1900.5563,714.9316" style="stroke:#181818;stroke-width:1.875;"/></g><!--link EventProcessor to AbstractEventProcessingPipeline--><g class="link" data-entity-1="EventProcessor" data-entity-2="AbstractEventProcessingPipeline" data-link-type="dependency" data-source-line="66" data-uid="lnk37" id="link_EventProcessor_AbstractEventProcessingPipeline"><path codeLine="66" d="M2032.5,760.8129 C2032.5,787.6066 2032.5,816.1816 2032.5,816.1816 C2032.5,816.1816 3954.375,816.1816 3954.375,816.1816 C3954.375,816.1816 3954.375,798.8566 3954.375,772.0629" fill="none" id="EventProcessor-to-AbstractEventProcessingPipeline" style="stroke:#181818;stroke-width:1.875;"/><polygon fill="#181818" points="3954.375,760.8129,3946.875,777.6879,3954.375,770.1879,3961.875,777.6879,3954.375,760.8129" style="stroke:#181818;stroke-width:1.875;"/></g><!--link DefaultEventProcessingPipeline to AbstractEventProcessingPipeline--><g class="link" data-entity-1="DefaultEventProcessingPipeline" data-entity-2="AbstractEventProcessingPipeline" data-link-type="extension" data-source-line="67" data-uid="lnk38" id="link_DefaultEventProcessingPipeline_AbstractEventProcessingPipeline"><path codeLine="67" d="M3947.0625,469.7191 C3947.0625,524.1504 3947.0625,581.0941 3947.0625,635.6191" fill="none" id="DefaultEventProcessingPipeline-to-AbstractEventProcessingPipeline" style="stroke:#181818;stroke-width:1.875;"/><polygon fill="none" points="3947.0625,669.3691,3958.3125,635.6191,3935.8125,635.6191,3947.0625,669.3691" style="stroke:#181818;stroke-width:1.875;"/></g><!--link DefaultEventProcessingPipeline to EventHandlerFactory--><g class="link" data-entity-1="DefaultEventProcessingPipeline" data-entity-2="EventHandlerFactory" data-link-type="dependency" data-source-line="69" data-uid="lnk39" id="link_DefaultEventProcessingPipeline_EventHandlerFactory"><path codeLine="69" d="M4185.075,448.6816 C4671.5625,448.6816 5733.75,448.6816 5733.75,448.6816 C5733.75,448.6816 5733.75,581.7879 5733.75,657.9129" fill="none" id="DefaultEventProcessingPipeline-to-EventHandlerFactory" style="stroke:#181818;stroke-width:1.875;"/><polygon fill="#181818" points="5733.75,669.1629,5741.25,652.2879,5733.75,659.7879,5726.25,652.2879,5733.75,669.1629" style="stroke:#181818;stroke-width:1.875;"/></g><!--link DefaultEventProcessingPipeline to EventRepository--><g class="link" data-entity-1="DefaultEventProcessingPipeline" data-entity-2="EventRepository" data-link-type="dependency" data-source-line="70" data-uid="lnk40" id="link_DefaultEventProcessingPipeline_EventRepository"><path codeLine="70" d="M3708.8813,448.6816 C3654.975,448.6816 3613.275,448.6816 3613.275,448.6816 C3613.275,448.6816 3613.275,714.9316 3613.275,714.9316 C3613.275,714.9316 3517.4813,714.9316 3423.5813,714.9316" fill="none" id="DefaultEventProcessingPipeline-to-EventRepository" style="stroke:#181818;stroke-width:1.875;"/><polygon fill="#181818" points="3412.3313,714.9316,3429.2063,722.4316,3421.7063,714.9316,3429.2063,707.4316,3412.3313,714.9316" style="stroke:#181818;stroke-width:1.875;"/></g><!--link DefaultEventProcessingPipeline to EventPublisher--><g class="link" data-entity-1="DefaultEventProcessingPipeline" data-entity-2="EventPublisher" data-link-type="dependency" data-source-line="71" data-uid="lnk41" id="link_DefaultEventProcessingPipeline_EventPublisher"><path codeLine="71" d="M3946.875,378.5004 C3946.875,321.9129 3946.875,233.0566 3946.875,233.0566 C3946.875,233.0566 1973.625,233.0566 1444.575,233.0566" fill="none" id="DefaultEventProcessingPipeline-to-EventPublisher" style="stroke:#181818;stroke-width:1.875;"/><polygon fill="#181818" points="1433.325,233.0566,1450.2,240.5566,1442.7,233.0566,1450.2,225.5566,1433.325,233.0566" style="stroke:#181818;stroke-width:1.875;"/></g><!--link DefaultEventProcessingPipeline to EventPayload--><g class="link" data-entity-1="DefaultEventProcessingPipeline" data-entity-2="EventPayload" data-link-type="dependency" data-source-line="72" data-uid="lnk42" id="link_DefaultEventProcessingPipeline_EventPayload"><path codeLine="72" d="M4185.6,437.4316 C4713.6375,437.4316 5934.2062,437.4316 5934.2062,437.4316 C5934.2062,437.4316 5934.2062,692.4316 5934.2062,692.4316 C5934.2062,692.4316 6143.325,692.4316 6286.6312,692.4316" fill="none" id="DefaultEventProcessingPipeline-to-EventPayload" style="stroke:#181818;stroke-width:1.875;stroke-dasharray:13.125,13.125;"/><polygon fill="#181818" points="6297.8812,692.4316,6281.0062,684.9316,6288.5062,692.4316,6281.0062,699.9316,6297.8812,692.4316" style="stroke:#181818;stroke-width:1.875;"/><text fill="#000000" font-family="sans-serif" font-size="24.375" lengthAdjust="spacing" textLength="72.637" x="5296.125" y="430.0571">builds</text></g><!--link DefaultEventProcessingPipeline to EventHandlerStrategy--><g class="link" data-entity-1="DefaultEventProcessingPipeline" data-entity-2="EventHandlerStrategy" data-link-type="dependency" data-source-line="73" data-uid="lnk43" id="link_DefaultEventProcessingPipeline_EventHandlerStrategy"><path codeLine="73" d="M4185.5063,459.9316 C4208.8125,459.9316 4224.0375,459.9316 4224.0375,459.9316 C4224.0375,459.9316 4224.0375,932.4316 4224.0375,932.4316 C4224.0375,932.4316 4529.5688,932.4316 4736.8313,932.4316" fill="none" id="DefaultEventProcessingPipeline-to-EventHandlerStrategy" style="stroke:#181818;stroke-width:1.875;stroke-dasharray:13.125,13.125;"/><polygon fill="#181818" points="4748.0813,932.4316,4731.2063,924.9316,4738.7063,932.4316,4731.2063,939.9316,4748.0813,932.4316" style="stroke:#181818;stroke-width:1.875;"/><text fill="#000000" font-family="sans-serif" font-size="24.375" lengthAdjust="spacing" textLength="55.8435" x="4174.2938" y="925.0571">uses</text></g><!--link EventHandlerFactory to EventHandlerStrategy--><g class="link" data-entity-1="EventHandlerFactory" data-entity-2="EventHandlerStrategy" data-link-type="dependency" data-source-line="75" data-uid="lnk44" id="link_EventHandlerFactory_EventHandlerStrategy"><path codeLine="75" d="M5733.75,760.5316 C5733.75,824.3004 5733.75,932.4316 5733.75,932.4316 C5733.75,932.4316 5349.5438,932.4316 5111.25,932.4316" fill="none" id="EventHandlerFactory-to-EventHandlerStrategy" style="stroke:#181818;stroke-width:1.875;stroke-dasharray:13.125,13.125;"/><polygon fill="#181818" points="5100,932.4316,5116.875,939.9316,5109.375,932.4316,5116.875,924.9316,5100,932.4316" style="stroke:#181818;stroke-width:1.875;"/></g><!--link UserEventHandler to EventHandlerStrategy--><g class="link" data-entity-1="UserEventHandler" data-entity-2="EventHandlerStrategy" data-link-type="extension" data-source-line="76" data-uid="lnk45" id="link_UserEventHandler_EventHandlerStrategy"><path codeLine="76" d="M4535.625,760.7941 C4535.625,816.3129 4535.625,902.4316 4535.625,902.4316 C4535.625,902.4316 4611.4125,902.4316 4714.1063,902.4316" fill="none" id="UserEventHandler-to-EventHandlerStrategy" style="stroke:#181818;stroke-width:1.875;stroke-dasharray:13.125,13.125;"/><polygon fill="none" points="4747.8563,902.4316,4714.1063,891.1816,4714.1063,913.6816,4747.8563,902.4316" style="stroke:#181818;stroke-width:1.875;"/></g><!--link SecurityEventHandler to EventHandlerStrategy--><g class="link" data-entity-1="SecurityEventHandler" data-entity-2="EventHandlerStrategy" data-link-type="extension" data-source-line="77" data-uid="lnk46" id="link_SecurityEventHandler_EventHandlerStrategy"><path codeLine="77" d="M4923.75,760.3816 C4923.75,793.7191 4923.75,805.0816 4923.75,838.3816" fill="none" id="SecurityEventHandler-to-EventHandlerStrategy" style="stroke:#181818;stroke-width:1.875;stroke-dasharray:13.125,13.125;"/><polygon fill="none" points="4923.75,872.1316,4935,838.3816,4912.5,838.3816,4923.75,872.1316" style="stroke:#181818;stroke-width:1.875;"/></g><!--link SystemEventHandler to EventHandlerStrategy--><g class="link" data-entity-1="SystemEventHandler" data-entity-2="EventHandlerStrategy" data-link-type="extension" data-source-line="78" data-uid="lnk47" id="link_SystemEventHandler_EventHandlerStrategy"><path codeLine="78" d="M5330.625,760.7941 C5330.625,816.3129 5330.625,902.4316 5330.625,902.4316 C5330.625,902.4316 5243.55,902.4316 5133.6,902.4316" fill="none" id="SystemEventHandler-to-EventHandlerStrategy" style="stroke:#181818;stroke-width:1.875;stroke-dasharray:13.125,13.125;"/><polygon fill="none" points="5099.85,902.4316,5133.6,913.6816,5133.6,891.1816,5099.85,902.4316" style="stroke:#181818;stroke-width:1.875;"/></g><!--link RawPayload to EventPayload--><g class="link" data-entity-1="RawPayload" data-entity-2="EventPayload" data-link-type="extension" data-source-line="80" data-uid="lnk48" id="link_RawPayload_EventPayload"><path codeLine="80" d="M6331.7062,469.7191 C6331.7062,524.1504 6331.7062,581.0941 6331.7062,635.6191" fill="none" id="RawPayload-to-EventPayload" style="stroke:#181818;stroke-width:1.875;stroke-dasharray:13.125,13.125;"/><polygon fill="none" points="6331.7062,669.3691,6342.9562,635.6191,6320.4562,635.6191,6331.7062,669.3691" style="stroke:#181818;stroke-width:1.875;"/></g><!--link PayloadDecorator to EventPayload--><g class="link" data-entity-1="PayloadDecorator" data-entity-2="EventPayload" data-link-type="extension" data-source-line="81" data-uid="lnk49" id="link_PayloadDecorator_EventPayload"><path codeLine="81" d="M6466.0313,469.7191 C6466.0313,524.1504 6466.0313,581.0941 6466.0313,635.6191" fill="none" id="PayloadDecorator-to-EventPayload" style="stroke:#181818;stroke-width:1.875;stroke-dasharray:13.125,13.125;"/><polygon fill="none" points="6466.0313,669.3691,6477.2813,635.6191,6454.7813,635.6191,6466.0313,669.3691" style="stroke:#181818;stroke-width:1.875;"/></g><!--link PayloadDecorator to EventPayload--><g class="link" data-entity-1="PayloadDecorator" data-entity-2="EventPayload" data-link-type="aggregation" data-source-line="82" data-uid="lnk50" id="link_PayloadDecorator_EventPayload"><path codeLine="82" d="M6501.7688,492.2191 C6501.7688,546.6504 6501.7688,603.5941 6501.7688,658.1191" fill="none" id="PayloadDecorator-EventPayload" style="stroke:#181818;stroke-width:1.875;"/><polygon fill="none" points="6501.7688,469.7191,6494.2688,480.9691,6501.7688,492.2191,6509.2688,480.9691,6501.7688,469.7191" style="stroke:#181818;stroke-width:1.875;"/><polygon fill="#181818" points="6501.7688,669.3691,6509.2688,652.4941,6501.7688,659.9941,6494.2688,652.4941,6501.7688,669.3691" style="stroke:#181818;stroke-width:1.875;"/><text fill="#000000" font-family="sans-serif" font-size="24.375" lengthAdjust="spacing" textLength="105.8313" x="6394.8938" y="562.1696">wrappee</text></g><!--link EncryptedPayloadDecorator to PayloadDecorator--><g class="link" data-entity-1="EncryptedPayloadDecorator" data-entity-2="PayloadDecorator" data-link-type="extension" data-source-line="83" data-uid="lnk51" id="link_EncryptedPayloadDecorator_PayloadDecorator"><path codeLine="83" d="M6499.3688,254.4129 C6499.3688,290.9941 6499.3688,308.3191 6499.3688,344.9004" fill="none" id="EncryptedPayloadDecorator-to-PayloadDecorator" style="stroke:#181818;stroke-width:1.875;"/><polygon fill="none" points="6499.3688,378.6504,6510.6188,344.9004,6488.1188,344.9004,6499.3688,378.6504" style="stroke:#181818;stroke-width:1.875;"/></g><!--link CompressedPayloadDecorator to PayloadDecorator--><g class="link" data-entity-1="CompressedPayloadDecorator" data-entity-2="PayloadDecorator" data-link-type="extension" data-source-line="84" data-uid="lnk52" id="link_CompressedPayloadDecorator_PayloadDecorator"><path codeLine="84" d="M6679.0688,254.4129 C6679.0688,290.9941 6679.0688,308.3191 6679.0688,344.9004" fill="none" id="CompressedPayloadDecorator-to-PayloadDecorator" style="stroke:#181818;stroke-width:1.875;"/><polygon fill="none" points="6679.0688,378.6504,6690.3188,344.9004,6667.8188,344.9004,6679.0688,378.6504" style="stroke:#181818;stroke-width:1.875;"/></g><!--link MetadataPayloadDecorator to PayloadDecorator--><g class="link" data-entity-1="MetadataPayloadDecorator" data-entity-2="PayloadDecorator" data-link-type="extension" data-source-line="85" data-uid="lnk53" id="link_MetadataPayloadDecorator_PayloadDecorator"><path codeLine="85" d="M7366.875,254.4129 C7366.875,317.7129 7366.875,424.3066 7366.875,424.3066 C7366.875,424.3066 6987.2813,424.3066 6758.7938,424.3066" fill="none" id="MetadataPayloadDecorator-to-PayloadDecorator" style="stroke:#181818;stroke-width:1.875;"/><polygon fill="none" points="6725.0438,424.3066,6758.7938,435.5566,6758.7938,413.0566,6725.0438,424.3066" style="stroke:#181818;stroke-width:1.875;"/></g><!--link EventPublisher to EventSubscriber--><g class="link" data-entity-1="EventPublisher" data-entity-2="EventSubscriber" data-link-type="aggregation" data-source-line="87" data-uid="lnk54" id="link_EventPublisher_EventSubscriber"><path codeLine="87" d="M1305,276.9129 C1305,340.2129 1305,424.3066 1305,424.3066 C1305,424.3066 944.25,424.3066 735.7312,424.3066" fill="none" id="EventPublisher-EventSubscriber" style="stroke:#181818;stroke-width:1.875;"/><polygon fill="none" points="1305,254.4129,1297.5,265.6629,1305,276.9129,1312.5,265.6629,1305,254.4129" style="stroke:#181818;stroke-width:1.875;"/><polygon fill="#181818" points="724.4812,424.3066,741.3562,431.8066,733.8562,424.3066,741.3562,416.8066,724.4812,424.3066" style="stroke:#181818;stroke-width:1.875;"/></g><!--link DashboardSubscriber to EventSubscriber--><g class="link" data-entity-1="DashboardSubscriber" data-entity-2="EventSubscriber" data-link-type="extension" data-source-line="88" data-uid="lnk55" id="link_DashboardSubscriber_EventSubscriber"><path codeLine="88" d="M586.875,254.4129 C586.875,290.9941 586.875,308.3191 586.875,344.9004" fill="none" id="DashboardSubscriber-to-EventSubscriber" style="stroke:#181818;stroke-width:1.875;stroke-dasharray:13.125,13.125;"/><polygon fill="none" points="586.875,378.6504,598.125,344.9004,575.625,344.9004,586.875,378.6504" style="stroke:#181818;stroke-width:1.875;"/></g><!--link LoggerSubscriber to EventSubscriber--><g class="link" data-entity-1="LoggerSubscriber" data-entity-2="EventSubscriber" data-link-type="extension" data-source-line="89" data-uid="lnk56" id="link_LoggerSubscriber_EventSubscriber"><path codeLine="89" d="M252.825,254.4129 C252.825,317.7129 252.825,424.3066 252.825,424.3066 C252.825,424.3066 322.95,424.3066 414.8438,424.3066" fill="none" id="LoggerSubscriber-to-EventSubscriber" style="stroke:#181818;stroke-width:1.875;stroke-dasharray:13.125,13.125;"/><polygon fill="none" points="448.5938,424.3066,414.8438,413.0566,414.8438,435.5566,448.5938,424.3066" style="stroke:#181818;stroke-width:1.875;"/></g><!--link EventNotification to Event--><g class="link" data-entity-1="EventNotification" data-entity-2="Event" data-link-type="dependency" data-source-line="90" data-uid="lnk57" id="link_EventNotification_Event"><path codeLine="90" d="M967.5,254.2629 C967.5,278.8816 967.5,304.3066 967.5,304.3066 C967.5,304.3066 2364.375,304.3066 2364.375,304.3066 C2364.375,304.3066 2364.375,333.7066 2364.375,367.6816" fill="none" id="EventNotification-to-Event" style="stroke:#181818;stroke-width:1.875;"/><polygon fill="#181818" points="2364.375,378.9316,2371.875,362.0566,2364.375,369.5566,2356.875,362.0566,2364.375,378.9316" style="stroke:#181818;stroke-width:1.875;"/></g><!--link DashboardSubscriber to Dashboard--><g class="link" data-entity-1="DashboardSubscriber" data-entity-2="Dashboard" data-link-type="dependency" data-source-line="91" data-uid="lnk58" id="link_DashboardSubscriber_Dashboard"><path codeLine="91" d="M741.2813,254.0566 C741.2813,288.7066 741.2813,330.5566 741.2813,330.5566 C741.2813,330.5566 2130,330.5566 2130,330.5566 C2130,330.5566 2130,343.4754 2130,367.2879" fill="none" id="DashboardSubscriber-to-Dashboard" style="stroke:#181818;stroke-width:1.875;"/><polygon fill="#181818" points="2130,378.5379,2137.5,361.6629,2130,369.1629,2122.5,361.6629,2130,378.5379" style="stroke:#181818;stroke-width:1.875;"/></g><!--link LoggerSubscriber to Logger--><g class="link" data-entity-1="LoggerSubscriber" data-entity-2="Logger" data-link-type="dependency" data-source-line="92" data-uid="lnk59" id="link_LoggerSubscriber_Logger"><path codeLine="92" d="M155.925,254.1504 C155.925,297.0879 155.925,354.9316 155.925,354.9316 C155.925,354.9316 1888.125,354.9316 1888.125,354.9316 C1888.125,354.9316 1888.125,354.2754 1888.125,367.1754" fill="none" id="LoggerSubscriber-to-Logger" style="stroke:#181818;stroke-width:1.875;"/><polygon fill="#181818" points="1888.125,378.4254,1895.625,361.5504,1888.125,369.0504,1880.625,361.5504,1888.125,378.4254" style="stroke:#181818;stroke-width:1.875;"/></g><!--link EventRepositoryProxy to EventRepository--><g class="link" data-entity-1="EventRepositoryProxy" data-entity-2="EventRepository" data-link-type="extension" data-source-line="94" data-uid="lnk60" id="link_EventRepositoryProxy_EventRepository"><path codeLine="94" d="M3227.7563,469.7191 C3227.7563,524.1504 3227.7563,581.0941 3227.7563,635.6191" fill="none" id="EventRepositoryProxy-to-EventRepository" style="stroke:#181818;stroke-width:1.875;stroke-dasharray:13.125,13.125;"/><polygon fill="none" points="3227.7563,669.3691,3239.0063,635.6191,3216.5063,635.6191,3227.7563,669.3691" style="stroke:#181818;stroke-width:1.875;"/></g><!--link EventRepositoryProxy to EventRepository--><g class="link" data-entity-1="EventRepositoryProxy" data-entity-2="EventRepository" data-link-type="dependency" data-source-line="95" data-uid="lnk61" id="link_EventRepositoryProxy_EventRepository"><path codeLine="95" d="M3319.7438,469.7191 C3319.7438,524.1504 3319.7438,603.5941 3319.7438,658.1191" fill="none" id="EventRepositoryProxy-to-EventRepository-1" style="stroke:#181818;stroke-width:1.875;"/><polygon fill="#181818" points="3319.7438,669.3691,3327.2438,652.4941,3319.7438,659.9941,3312.2438,652.4941,3319.7438,669.3691" style="stroke:#181818;stroke-width:1.875;"/><text fill="#000000" font-family="sans-serif" font-size="24.375" lengthAdjust="spacing" textLength="46.7267" x="3272.8688" y="562.1696">real</text></g><!--link DatabaseEventRepository to EventRepository--><g class="link" data-entity-1="DatabaseEventRepository" data-entity-2="EventRepository" data-link-type="extension" data-source-line="96" data-uid="lnk62" id="link_DatabaseEventRepository_EventRepository"><path codeLine="96" d="M2999.3625,469.7191 C2999.3625,551.4504 2999.3625,714.9316 2999.3625,714.9316 C2999.3625,714.9316 3033.15,714.9316 3101.1938,714.9316" fill="none" id="DatabaseEventRepository-to-EventRepository" style="stroke:#181818;stroke-width:1.875;stroke-dasharray:13.125,13.125;"/><polygon fill="none" points="3134.9438,714.9316,3101.1938,703.6816,3101.1938,726.1816,3134.9438,714.9316" style="stroke:#181818;stroke-width:1.875;"/></g><!--link DatabaseEventRepository to ConnectionPool--><g class="link" data-entity-1="DatabaseEventRepository" data-entity-2="ConnectionPool" data-link-type="dependency" data-source-line="97" data-uid="lnk63" id="link_DatabaseEventRepository_ConnectionPool"><path codeLine="97" d="M2833.125,469.7191 C2833.125,524.1504 2833.125,603.5941 2833.125,658.1191" fill="none" id="DatabaseEventRepository-to-ConnectionPool" style="stroke:#181818;stroke-width:1.875;"/><polygon fill="#181818" points="2833.125,669.3691,2840.625,652.4941,2833.125,659.9941,2825.625,652.4941,2833.125,669.3691" style="stroke:#181818;stroke-width:1.875;"/></g><!--link ConnectionPool to Database--><g class="link" data-entity-1="ConnectionPool" data-entity-2="Database" data-link-type="dependency" data-source-line="98" data-uid="lnk64" id="link_ConnectionPool_Database"><path codeLine="98" d="M2833.125,760.3816 C2833.125,793.7191 2833.125,827.5816 2833.125,860.8816" fill="none" id="ConnectionPool-to-Database" style="stroke:#181818;stroke-width:1.875;"/><polygon fill="#181818" points="2833.125,872.1316,2840.625,855.2566,2833.125,862.7566,2825.625,855.2566,2833.125,872.1316" style="stroke:#181818;stroke-width:1.875;"/></g><!--link core to pipe--><!--link pipe to strat--><!--link strat to deco--><!--link deco to obs--><!--link obs to pers--><!--SRC=[ZLRDRjj64BxlKmnoYOn2WUjJKQ06L9bEXJgIG2e1YgA75JcM5gQunEugZfeKA8ecAVmMFQM77fe2AP0teTwcinGjhYZ-s881xiutipEpCz-E4IP666Wj5iaA4mDdq0VlfVsQAXaY2P8511jjS0MzotKSmmk1joUCFOP-lm-NKeK870mdIIJuGd729H929TEKT4yiZ1cPWf4mbyR85U4KXaR8XEaRaQJSwaIfW2-_EdLsmfXhFJ16YVdQu2YKII1-Hd0XAGzl-083iw4Wh4sUB69q07h98tbhGxZciNObiKZGR584gSnIEe8LV_MCmhPcxN5dfwSsrc_g_c0uyRrw4IjSWqTydzipw8LIuSaZu1hi5xnci0iJ1ccw_yxJVxWgxaAg_VO5rykvv2hQxrp9nG8L-wNPtUbewbsDnfqkfo95cn_epN2LnjmWF4FAKhHptOfpr_bS6yL3Snz3iNGzfjHF2skbwtZDrt4Zh2M0OEOFPjxJ7xe2i7uON6noT_D5xgz83AfhJWMRd_qTJw8OLL20z_uzrwXSm5uGOBXMmcpgXNcFr8hSpKjAa5IRjYWlFAghmMpYTuKP8LKH9tDvd7PL5-QKRsB9ophn-MsvLRd2Gd1nRxWC8GdL9ZKODIA6SfKgkieM21KHZxZXHu2MP4o-3Jp_XTUP2pcdMtk9krJGmkcjF0jZQSIr27bEEqSv2jPp7HBHL2zjkfx7GY-nfkzgL7OTw0ZQUj7pWr4myyR3xdP4fGKLLqBUzgXXNctW2vXA6HVjIEAwU_SnbLhanNOGKxcVst8YCtpEDJOf3sMIx6ZRddsarXQixrqDPgF9E83U3M8Ami1A96B5uvE6u8aFwU4uhxBVuJ97TB5EEzkGYJVTDhgDdDSs-KFLd6m_LAMip0wD9q_E3tW0leRvMiIHVh1YXIV9m5gZPgmcuaObLYLLGhvfWDRHR1lyY7XRmAnaFmTrpuTLOde8H9PNia_mhU9fYiWQMNDNTaSysCoX3GfDZDe0PuUbu_Zka5ODmpbvS81Lkgj77R5lMSErHrbfETmSdM75nQJ3wkZCSSBfgbfaJVlHtIdaCMlWmdhZJM1hlqAQXyiYre8_6zdpSkBJ8q5lu6mq75pH43GOVZyQFsrWpiUmVP_zats0xCFsT_hTGVRNzcxxTlik-xpR-tK_g6_lia_q_n6opzb7-lWFjdyGzjtsj-mJM9NjUyZ-plxD_cJvlDh_SIcY29EVQAXEo7Sx2R9y7AnAyg6BxKQlgimEAYoVLgeIUhUPVRkFpg4dxdy0]--></g></svg>